<svg xmlns="http://www.w3.org/2000/svg" viewBox="0 0 64 64" role="img" aria-label="Heart">
  <rect width="64" height="64" rx="12" fill="#1a1715"/>
  <path
    fill="#d4af37"
    d="M32 52.5C14.8 41.2 8 33.1 8 23.6 8 16.5 13.4 11 20.4 11c4.2 0 8.1 2.1 10.6 5.5C33.5 13.1 37.4 11 41.6 11 48.6 11 54 16.5 54 23.6c0 9.5-6.8 17.6-22 28.9z"
  />
  <path
    fill="#b81d22"
    d="M32 48.2C17.8 38.6 12.2 31.8 12.2 24.1c0-5.4 4-9.6 9.2-9.6 3.5 0 6.7 1.9 8.6 4.9l2 2.5 2-2.5c1.9-3 5.1-4.9 8.6-4.9 5.2 0 9.2 4.2 9.2 9.6 0 7.7-5.6 14.5-19.8 24.1z"
  />
</svg>
